<svg xmlns="http://www.w3.org/2000/svg" width="399.98" height="364.666" viewBox="0 0 3364 3067">
  <metadata><?xpacket begin="﻿" id="W5M0MpCehiHzreSzNTczkc9d"?>
<x:xmpmeta xmlns:x="adobe:ns:meta/" x:xmptk="Adobe XMP Core 5.6-c140 79.160451, 2017/05/06-01:08:21        ">
   <rdf:RDF xmlns:rdf="http://www.w3.org/1999/02/22-rdf-syntax-ns#">
      <rdf:Description rdf:about=""/>
   </rdf:RDF>
</x:xmpmeta>         
<?xpacket end="w"?></metadata>
<defs>
    <style>
      .cls-1 {
        fill: #313131;
        fill-rule: evenodd;
      }

      .cls-2 {
        fill: #ee5a63;
      }

      .cls-3 {
        fill: #5ecd72;
      }

      .cls-4 {
        fill: #2c7fb7;
      }
    </style>
  </defs>
  <path id="Rounded_Rectangle_1" data-name="Rounded Rectangle 1" class="cls-1" d="M227.719,513.632L1365.99,29.157c197.07-83.877,431.09,19.424,522.69,230.73L2651.23,2018.9c91.61,211.31,6.11,450.6-190.96,534.48L1321.99,3037.86c-197.07,83.87-431.081-19.43-522.684-230.73L36.755,1048.11C-54.848,836.8,30.65,597.509,227.719,513.632Z"/>
  <circle class="cls-2" cx="1077.815" cy="906.346" r="279.565"/>
  <circle id="Ellipse_1_copy" data-name="Ellipse 1 copy" class="cls-3" cx="1376.11" cy="1551.75" r="279.58"/>
  <circle id="Ellipse_1_copy_2" data-name="Ellipse 1 copy 2" class="cls-4" cx="1693.515" cy="2212.5" r="279.515"/>
  <path class="cls-1" d="M2668,1348Q2394.505,682.5,2121,17c176.36-34.571,335.91-19.31,442,72,152.87,131.564,129.13,363.986,114,632C2665.5,924.727,2662.63,1132.06,2668,1348Z"/>
  <path id="Shape_1_copy" data-name="Shape 1 copy" class="cls-1" d="M2979.47,1693.6q-20.67-719.22-41.35-1438.424c177.19,29.981,321.05,100.638,388.03,223.548,96.52,177.1-7.82,386.135-116.69,631.506C3126.71,1296.75,3050.76,1489.7,2979.47,1693.6Z"/>
</svg>
